<?xml version="1.0" encoding="UTF-8" standalone="no"?>
<svg
   width="585"
   height="173"
   version="1.1"
   viewBox="0 0 585 173"
   id="svg35"
   sodipodi:docname="logo2.svg"
   inkscape:version="1.3 (0e150ed6c4, 2023-07-21)"
   xmlns:inkscape="http://www.inkscape.org/namespaces/inkscape"
   xmlns:sodipodi="http://sodipodi.sourceforge.net/DTD/sodipodi-0.dtd"
   xmlns="http://www.w3.org/2000/svg"
   xmlns:svg="http://www.w3.org/2000/svg">
  <sodipodi:namedview
     id="namedview35"
     pagecolor="#ffffff"
     bordercolor="#000000"
     borderopacity="0.25"
     inkscape:showpageshadow="2"
     inkscape:pageopacity="0.0"
     inkscape:pagecheckerboard="0"
     inkscape:deskcolor="#d1d1d1"
     inkscape:zoom="1.0119658"
     inkscape:cx="398.72888"
     inkscape:cy="-11.36402"
     inkscape:window-width="1920"
     inkscape:window-height="1008"
     inkscape:window-x="0"
     inkscape:window-y="0"
     inkscape:window-maximized="1"
     inkscape:current-layer="svg35" />
  <defs
     id="defs8">
    <clipPath
       clipPathUnits="userSpaceOnUse"
       id="clipPath36">
      <path
         id="path37"
         d="m 124.07422,0 -0.4375,5.8105469 8.0293,14.1992191 -124.000004,81.400394 -4.830078,-0.98438 -2.929688,1.75977 22.599609,11.20117 76.400387,-4.98047 4.541024,-2.15039 13.29883,0.80469 -0.22852,1.82031 8.80274,-7.91211 6.16406,5.69141 46.09961,-9.359379 4.25,-6.03125 1.12109,-4.009765 -36.59961,6.410156 5.56836,-9.75 30,-2.080078 4.98047,-8.300782 -30.29883,1.050782 1.79883,-4.650391 14.30078,-0.05469 2.61914,-3.128907 20.80078,0.386719 4.40039,-5.560547 -23.10156,0.347657 -3.28906,-1.580079 -22.06055,-0.138671 -26.77148,38.091796 -1.65625,-3.03125 -5.45899,-0.61914 -31.5,-27 56.29883,2.640625 -8.17969,-67.9003909 z m 437.90039,37.15625 -79.80078,38.5 9.25,-17.699219 -12.79883,0.613282 -2.64062,-2.59961 -19.69922,38.099609 2.17969,5.5 -4.39063,8.439458 7.38086,5.375 14.69922,-26.201176 17.09961,10.300781 0.93359,1.330078 91.30079,48.999997 0.17382,-4.37109 -2.34961,-0.92578 -0.96679,-3.44141 -6.61914,-3.77929 -3.35157,1.3496 -53.69921,-29.79882 0.12304,-4.11133 -1.4707,-1.0586 -0.0996,-3.140621 -5.9707,-3.310547 2.11914,-3.539062 -19.09961,-10.400391 33.90039,-17.099609 2.55078,-3.179687 20.09961,-10.300782 6.24023,-8.390625 4.75977,-3.109375 z M 124.42774,40.5 l 4.05078,14.099609 -18.5,-2.560546 z m 110.80664,9.224609 -8.73047,10.699219 -4.42969,0.695313 -4.32031,5.111328 -5.76953,1.75 -32.09961,39.199221 16.5,11.40039 53.83789,-40.648439 9.44141,10.574218 7.38086,-4.851562 -64.5,78.601563 1.53906,1.37891 18.90039,-20.69922 2.53125,0.28125 5.86914,-4.30078 5.83984,-1.11914 63.19922,-76.800786 -16.79883,0.01367 -22.30078,17.90039 0.53125,-19.599609 -1.98047,-2.060547 -10.80078,7.560547 0.50977,8.396484 -0.51953,0.371094 -9.10938,-0.603516 -37.5,25.798828 21.40039,-26.90039 1.53907,-7.039063 11.0996,-14.099609 z M 413.45313,50 390.55274,86.699219 366.1543,102.59961 l 5.92969,-15.699219 0.4082,-5.960938 -11.41797,1.169922 -10.90039,28.101565 9.08008,6.28906 23.20117,-15.90039 -4.65039,10.09961 10.19922,5.36133 28.80078,-49.701175 -3.63086,-6.888672 1.44141,-2.830078 -0.21094,-3.101562 1.33008,-2.158204 z m -21.37891,6.009766 -82.79883,5.009765 -15.40039,30 -13.70117,4.941406 6.05078,5.189453 3.98047,-0.63867 -33.5,68 5.95899,-3.10156 5.30078,-12.89844 16.90039,-11.60156 20.40039,-40.69922 84.89844,-28.099612 z m 32.5,3.5 -26.5,49.500004 14.79492,-2.20508 11.69922,-18.900393 5.68946,21.699223 10.5,-0.76954 25.10156,-45.900386 -13.90039,0.662109 -15.5,26.599609 -7.32031,-26.099609 -3.7793,-0.296875 0.41601,-3.871094 z m -54.59961,8.800781 -55.80078,17 6.98047,-13.701172 z M 71.927734,80.5 92.328126,96.400391 47.728516,94.970703 Z"
         style="fill:#feef17" />
    </clipPath>
  </defs>
  <g
     id="g37"
     transform="matrix(0.85500841,0,0,0.85500841,42.451244,12.542622)">
    <path
       id="path9"
       d="m 124.07422,6.640625 -0.4375,5.808594 8.0293,14.201172 -124.000004,81.400389 -4.830078,-0.98437 -2.929688,1.75976 22.599609,11.19922 76.400387,-4.97852 4.541024,-2.15039 13.29883,0.80469 -0.22852,1.82031 9.76953,-8.78125 -2.64062,-4.83007 -5.45899,-0.61719 -31.5,-27.000001 49.19727,2.30664 -13.71094,19.509766 7.31055,6.750005 46.09961,-9.35938 4.25,-6.029297 1.12109,-4.009766 -36.59961,6.408204 5.56836,-9.75 30,-2.080079 4.98047,-8.298828 -30.29883,1.048828 1.79883,-4.648437 14.30078,-0.05469 2.61914,-3.13086 20.80078,0.386719 4.40039,-5.560547 -23.10156,0.349609 -3.28906,-1.580078 -22.06055,-0.140625 -8.16015,11.613281 -7.10743,-58.992187 z m 436.90039,26.515625 -79.80078,38.5 9.25,-17.699219 -12.79883,0.613282 -2.64062,-2.59961 -19.69922,38.099609 2.17969,5.5 -4.39063,8.439458 7.38086,5.375 14.69922,-26.201176 17.09961,10.300781 0.93359,1.330078 91.30079,48.999997 0.17382,-4.37109 -2.34961,-0.92578 -0.96679,-3.44141 -6.61914,-3.77929 -3.35157,1.3496 -53.69921,-29.79882 0.12304,-4.111332 -1.4707,-1.058594 -0.0996,-3.140625 -5.9707,-3.310547 2.11914,-3.539062 -19.09961,-10.400391 33.90039,-17.099609 2.55078,-3.179687 20.09961,-10.300782 6.24023,-8.390625 4.75977,-3.109375 z m -436.54687,13.984375 4.05078,14.099609 -18.5,-2.560546 z M 409.45313,54.400391 386.55274,91.099609 362.1543,107 l 5.92969,-15.699219 0.4082,-5.960937 -8.25586,0.845703 28.92774,-9.574219 1.91015,-16.101562 -82.79883,5.009765 -15.40039,30 -13.70117,4.941409 6.05078,5.18945 3.98047,-0.63867 -33.5,68 5.95899,-3.10156 5.30078,-12.89844 16.90039,-11.60156 20.40039,-40.69922 52.48633,-17.373049 -10.57813,27.271479 9.08008,6.29102 L 378.45508,105 l -4.65039,10.09961 10.19922,5.36133 28.80078,-49.701174 -3.63086,-6.890625 1.44141,-2.830078 -0.21094,-3.09961 1.33008,-2.160156 z m -176.21875,1.523437 -8.73047,10.699219 -4.42969,0.697265 -4.32031,5.109375 -5.76953,1.75 -32.09961,39.201173 16.5,11.39844 52.94336,-39.972659 6.33594,7.097656 7.38086,-4.84961 -64.5,78.599613 1.53906,1.38086 18.90039,-20.69922 2.53125,0.27929 5.86914,-4.29882 5.83984,-1.1211 63.19922,-76.798826 -16.79883,0.01367 -22.30078,17.900391 0.0977,-3.615235 3.46289,-2.615234 -1.81055,-3.470703 -1.51562,1.085937 0.29687,-10.984374 -1.98047,-2.060547 -10.80078,7.560546 0.6875,11.347657 -5.80664,-0.384766 -37.5,25.800784 21.40039,-26.900393 1.53907,-7.041016 11.0996,-14.099609 z m 188.33984,0.585938 -26.5,49.500004 14.79492,-2.20508 11.69922,-18.900393 5.68946,21.699223 10.5,-0.76954 25.10156,-45.900386 -13.90039,0.662109 -15.5,26.599609 -7.32031,-26.099609 -3.7793,-0.296875 0.41601,-3.871094 z m -52.59961,16.300781 -55.80078,17 6.98047,-13.701172 z M 71.927734,87.140625 92.328126,103.03906 47.728516,101.60938 Z"
       style="fill:#51bcdc" />
    <path
       id="path17"
       d="m 124.07422,0 -0.4375,5.8105469 8.0293,14.1992191 -124.000004,81.400394 -4.830078,-0.98438 -2.929688,1.75977 22.599609,11.20117 76.400387,-4.98047 4.541024,-2.15039 13.29883,0.80469 -0.22852,1.82031 8.80274,-7.91211 6.16406,5.69141 46.09961,-9.359379 4.25,-6.03125 1.12109,-4.009765 -36.59961,6.410156 5.56836,-9.75 30,-2.080078 4.98047,-8.300782 -30.29883,1.050782 1.79883,-4.650391 14.30078,-0.05469 2.61914,-3.128907 20.80078,0.386719 4.40039,-5.560547 -23.10156,0.347657 -3.28906,-1.580079 -22.06055,-0.138671 -26.77148,38.091796 -1.65625,-3.03125 -5.45899,-0.61914 -31.5,-27 56.29883,2.640625 -8.17969,-67.9003909 z m 437.90039,37.15625 -79.80078,38.5 9.25,-17.699219 -12.79883,0.613282 -2.64062,-2.59961 -19.69922,38.099609 2.17969,5.5 -4.39063,8.439458 7.38086,5.375 14.69922,-26.201176 17.09961,10.300781 0.93359,1.330078 91.30079,48.999997 0.17382,-4.37109 -2.34961,-0.92578 -0.96679,-3.44141 -6.61914,-3.77929 -3.35157,1.3496 -53.69921,-29.79882 0.12304,-4.11133 -1.4707,-1.0586 -0.0996,-3.140621 -5.9707,-3.310547 2.11914,-3.539062 -19.09961,-10.400391 33.90039,-17.099609 2.55078,-3.179687 20.09961,-10.300782 6.24023,-8.390625 4.75977,-3.109375 z M 124.42774,40.5 l 4.05078,14.099609 -18.5,-2.560546 z m 110.80664,9.224609 -8.73047,10.699219 -4.42969,0.695313 -4.32031,5.111328 -5.76953,1.75 -32.09961,39.199221 16.5,11.40039 53.83789,-40.648439 9.44141,10.574218 7.38086,-4.851562 -64.5,78.601563 1.53906,1.37891 18.90039,-20.69922 2.53125,0.28125 5.86914,-4.30078 5.83984,-1.11914 63.19922,-76.800786 -16.79883,0.01367 -22.30078,17.90039 0.53125,-19.599609 -1.98047,-2.060547 -10.80078,7.560547 0.50977,8.396484 -0.51953,0.371094 -9.10938,-0.603516 -37.5,25.798828 21.40039,-26.90039 1.53907,-7.039063 11.0996,-14.099609 z M 413.45313,50 390.55274,86.699219 366.1543,102.59961 l 5.92969,-15.699219 0.4082,-5.960938 -11.41797,1.169922 -10.90039,28.101565 9.08008,6.28906 23.20117,-15.90039 -4.65039,10.09961 10.19922,5.36133 28.80078,-49.701175 -3.63086,-6.888672 1.44141,-2.830078 -0.21094,-3.101562 1.33008,-2.158204 z m -21.37891,6.009766 -82.79883,5.009765 -15.40039,30 -13.70117,4.941406 6.05078,5.189453 3.98047,-0.63867 -33.5,68 5.95899,-3.10156 5.30078,-12.89844 16.90039,-11.60156 20.40039,-40.69922 84.89844,-28.099612 z m 32.5,3.5 -26.5,49.500004 14.79492,-2.20508 11.69922,-18.900393 5.68946,21.699223 10.5,-0.76954 25.10156,-45.900386 -13.90039,0.662109 -15.5,26.599609 -7.32031,-26.099609 -3.7793,-0.296875 0.41601,-3.871094 z m -54.59961,8.800781 -55.80078,17 6.98047,-13.701172 z M 71.927734,80.5 92.328126,96.400391 47.728516,94.970703 Z"
       style="fill:#feef17" />
    <path
       id="path25"
       d="m 27.884766,48.9707 -2.310547,0.0391 v 5.66992 H 132.57422 l 2.33008,2.33008 H 35.275391 v 1 H 135.9043 l 11.40039,11.40036 H 36.974609 v 1 H 148.30469 l 14.66992,14.66992 4.00977,-4.00977 -10.66016,-10.66015 h 57.65039 l 21.45118,-12.40039 h 34.8496 l 62.29883,36 h 239 v -1 h -239 l -62.29883,-36 H 237.1543 l 6.91992,-4 h 256 v -1 h -0.5 -256.5 l -8.64843,5 h -91.50196 l -8.03906,-8.03907 z m 116.039064,9.03907 h 88.77149 L 212.97461,69.41016 H 155.32422 Z M 482.54493,63 l -3.47071,0.01 -4.78906,4.79101 2.11914,2.11914 3.91992,-3.91992 h 2.22071 z m 2.99023,0.01 v 3 h 9 v -3 z m 12,0 v 3 h 9 v -3 z m 12,0 v 3 h 9 v -3 z m 12,0 v 3 h 9 v -3 z m -202.46094,4 v 1 h 1.66016 v -1 z m 2.66016,0 v 1 h 3 v -1 z m 4,0 v 1 h 3 v -1 z m 4,0 v 1 h 3 v -1 z m 4,0 v 1 h 3 v -1 z m 4,0 v 1 h 3 v -1 z m 4,0 v 1 h 3 v -1 z m 4,0 v 1 h 3 v -1 z m 4,0 v 1 h 3 v -1 z m 4,0 v 1 h 3 v -1 z m 4,0 v 1 h 3 v -1 z m 4,0 v 1 h 3 v -1 z m 4,0 v 1 h 3 v -1 z m 4,0 v 1 h 3 v -1 z m 4,0 v 1 h 3 v -1 z m 4,0 v 1 h 3 v -1 z m 4,0 v 1 h 3 v -1 z m 4,0 v 1 h 3 v -1 z m 4,0 v 1 h 3 v -1 z m 4,0 v 1 h 3 v -1 z m 4,0 v 1 h 3 v -1 z m 4,0 v 1 h 3 v -1 z m 4,0 v 1 h 3 v -1 z m 4,0 v 1 h 3 v -1 z m 4,0 v 1 h 3 v -1 z m 4,0 v 1 h 3 v -1 z m 4,0 v 1 h 3 v -1 z m 4,0 v 1 h 3 v -1 z m 4,0 v 1 h 3 v -1 z m 4,0 v 1 h 3 v -1 z m 4,0 v 1 h 3 v -1 z m 4,0 v 1 h 3 v -1 z m 4,0 v 1 h 1.33008 l 1.48047,0.39648 0.25781,-0.96484 -1.60938,-0.43164 z m 4.04101,0.68945 -0.25976,0.9668 2.89844,0.77539 0.25781,-0.96485 z m 3.85938,1.03906 -0.25977,0.9668 2.90039,0.77539 0.25977,-0.96484 z m 3.85937,1.04102 -0.25781,0.96679 2.90039,0.77539 0.25977,-0.96484 z m 14.64063,0.15039 -2.98633,2.98633 -0.0645,-0.0176 -0.0293,0.11133 -3.2793,3.27929 2.11915,2.1211 3.7832,-3.78321 0.0469,0.0137 0.0215,-0.082 2.50781,-2.50781 z m -10.7793,0.88867 -0.25781,0.9668 2.89844,0.77539 0.25976,-0.96485 z m 3.86914,1.04102 -0.25976,0.96679 2.90039,0.77539 0.25781,-0.96484 z m 7.72071,2.08007 -0.25977,0.9668 2.89844,0.77734 0.25976,-0.96679 z m 3.85937,1.03907 -0.25781,0.96679 2.90039,0.77735 0.25977,-0.9668 z m 3.85938,1.04101 -0.25782,0.96485 2.90039,0.77734 0.25782,-0.9668 z m -17.01953,2.39063 -4.62891,4.6289 h -1.21094 v 3 h 2.44922 l 5.51172,-5.50976 z M 23.173828,79.01 v 3 h 6 v -3 z m 9,0 v 3 h 1.5 v -3 z m 4.5,0 v 3 h 6 v -3 z m 9,0 v 3 h 1.5 v -3 z m 4.5,0 v 3 h 6 v -3 z m 9,0 v 3 h 1.5 v -3 z m 4.5,0 v 3 h 6 v -3 z m 9,0 v 3 h 1.5 v -3 z m 4.5,0 v 3 h 6 v -3 z m 9,0 v 3 h 1.5 v -3 z m 4.499998,0 v 3 h 6 v -3 z m 9,0 v 3 h 1.500004 v -3 z m 4.500004,0 v 3 h 6 v -3 z m 9,0 v 3 h 1.5 v -3 z m 4.5,0 v 3 h 6 v -3 z m 9,0 v 3 h 1.5 v -3 z m 4.5,0 v 3 h 6 v -3 z m 9,0 v 3 h 1.5 v -3 z m 4.5,0 v 3 h 5.64063 v -3 z m 199.97071,4.02929 v 3 h 1.80078 v -3 z m 4.80078,0 v 3 h 9 v -3 z m 12,0 v 3 h 9 v -3 z m 12,0 v 3 h 9 v -3 z m 12,0 v 3 h 9 v -3 z m 12,0 v 3 h 9 v -3 z m 12,0 v 3 h 9 v -3 z m 12,0 v 3 h 9 v -3 z m 12,0 v 3 h 9 v -3 z m 12,0 v 3 h 9 v -3 z M 13.173828,87.01 v 3 h 6 v -3 z m 9,0 v 3 h 1.5 v -3 z m 4.5,0 v 3 h 6 v -3 z m 9,0 v 3 h 1.5 v -3 z m 4.5,0 v 3 h 6 v -3 z m 9,0 v 3 h 1.5 v -3 z m 4.5,0 v 3 h 6 v -3 z m 9,0 v 3 h 1.5 v -3 z m 4.5,0 v 3 h 6 v -3 z m 9,0 v 3 h 1.5 v -3 z m 4.5,0 v 3 h 6 v -3 z m 8.999998,0 v 3 h 1.5 v -3 z m 4.5,0 v 3 h 6.000004 v -3 z m 9.000004,0 v 3 h 1.5 v -3 z m 4.5,0 v 3 h 6 v -3 z m 9,0 v 3 h 1.5 v -3 z m 4.5,0 v 3 h 6 v -3 z m 9,0 v 3 h 1.5 v -3 z m 4.5,0 v 3 h 6 v -3 z m 9,0 v 3 h 1.5 v -3 z m 4.5,0 v 3 h 6 v -3 z m 9,0 v 3 h 1.5 v -3 z m 4.5,0 v 3 h 6 v -3 z m 9,0 v 3 h 1.5 v -3 z m 4.5,0 v 3 h 6 v -3 z m 9,0 v 3 h 1.5 v -3 z m 4.5,0 v 3 h 6 v -3 z m 9,0 v 3 h 1.5 v -3 z m 4.5,0 v 3 h 6 v -3 z m 9,0 v 3 h 1.5 v -3 z m 4.5,0 v 3 h 6 v -3 z m 9,0 v 3 h 1.5 v -3 z m 4.5,0 v 3 h 6 v -3 z m 9,0 v 3 h 1.5 v -3 z m 4.5,0 v 3 h 6 v -3 z m 9,0 v 3 h 1.5 v -3 z m 4.5,0 v 3 h 6 v -3 z m 9,0 v 3 h 1.5 v -3 z m 4.5,0 v 3 h 6 v -3 z m 9,0 v 3 h 1.5 v -3 z m 4.5,0 v 3 h 6 v -3 z m 9,0 v 3 h 1.5 v -3 z m 4.5,0 v 3 h 6 v -3 z m 9,0 v 3 h 0.24805 v -3 z m -258.500002,13 -0.722656,0.7207 0.707031,0.70703 0.429688,-0.42773 h 1.980468 v -1 z m 3.390625,0 v 1 h 3 v -1 z m 4,0 v 1 h 3 v -1 z m 4,0 v 1 h 3 v -1 z m 4,0 v 1 h 3 v -1 z m 4,0 v 1 h 3 v -1 z m 4,0 v 1 h 3 v -1 z m 4,0 v 1 h 3 v -1 z m 4,0 v 1 h 3 v -1 z m 4,0 v 1 h 3 v -1 z m 4,0 v 1 h 3.000003 v -1 z m 4.000003,0 v 1 h 3 v -1 z m 4,0 v 1 h 3 v -1 z m 4,0 v 1 h 3.000004 v -1 z m 4.000004,0 v 1 h 3 v -1 z m 4,0 v 1 h 3 v -1 z m 4,0 v 1 h 3 v -1 z m 4,0 v 1 h 3 v -1 z m 4,0 v 1 h 3 v -1 z m 4,0 v 1 h 3 v -1 z m 4,0 v 1 h 3 v -1 z m 4,0 v 1 h 3 v -1 z m 4,0 v 1 h 3 v -1 z m 4,0 v 1 h 3 v -1 z m 4,0 v 1 h 3 v -1 z m 4,0 v 1 h 3 v -1 z m 4,0 v 1 h 3 v -1 z m 4,0 v 1 h 3 v -1 z m 4,0 v 1 h 3 v -1 z m 4,0 v 1 h 3 v -1 z m 4,0 v 1 h 3 v -1 z m 4,0 v 1 h 3 v -1 z m 4,0 v 1 h 3 v -1 z m 4,0 v 1 h 3 v -1 z m 4,0 v 1 h 3 v -1 z m 4,0 v 1 h 3 v -1 z m 4,0 v 1 h 3 v -1 z m 4,0 v 1 h 3 v -1 z m 4,0 v 1 h 3 v -1 z m 4,0 v 1 h 3 v -1 z m 4,0 v 1 h 3 v -1 z m 4,0 v 1 h 3 v -1 z m 4,0 v 1 h 3 v -1 z m 4,0 v 1 h 3 v -1 z m 4,0 v 1 h 3 v -1 z m 4,0 v 1 h 3 v -1 z m 4,0 v 1 h 3 v -1 z m 4,0 v 1 h 3 v -1 z m 4,0 v 1 h 3 v -1 z m 4,0 v 1 h 3 v -1 z m 4,0 v 1 h 3 v -1 z m 4,0 v 1 h 3 v -1 z m 4,0 v 1 h 3 v -1 z m 4,0 v 1 h 3 v -1 z m 4,0 v 1 h 3 v -1 z m 4,0 v 1 h 3 v -1 z m 4,0 v 1 h 3 v -1 z m 4,0 v 1 h 3 v -1 z m 4,0 v 1 h 3 v -1 z m 4,0 v 1 h 3 v -1 z m 4,0 v 1 h 3 v -1 z m 4,0 v 1 h 3 v -1 z m 4,0 v 1 h 3 v -1 z m 4,0 v 1 h 3 v -1 z m 4,0 v 1 h 3 v -1 z m 4,0 v 1 h 3 v -1 z m 4,0 v 1 h 3 v -1 z m 4,0 v 1 h 3 v -1 z m 4,0 v 1 h 3 v -1 z m 4,0 v 1 h 3 v -1 z m 4,0 v 1 h 3 v -1 z m 4,0 v 1 h 3 v -1 z m 4,0 v 1 h 3 v -1 z m 4,0 v 1 h 3 v -1 z m 4,0 v 1 h 3 v -1 z m 4,0 v 1 h 3 v -1 z m 4,0 v 1 h 3 v -1 z m 4,0 v 1 h 3 v -1 z m 4,0 v 1 h 3 v -1 z m 4,0 v 1 h 3 v -1 z m 4,0 v 1 h 3 v -1 z m 4,0 v 1 h 3 v -1 z m 4,0 v 1 h 3 v -1 z m 4,0 v 1 h 3 v -1 z m 4,0 v 1 h 3 v -1 z m 4,0 v 1 h 3 v -1 z m 4,0 v 1 h 3 v -1 z m 4,0 v 1 h 3 v -1 z m 4,0 v 1 h 3 v -1 z m 4,0 v 1 h 3 v -1 z m 4,0 v 1 h 3 v -1 z m 4,0 v 1 h 3 v -1 z m 4,0 v 1 h 3 v -1 z m 4,0 v 1 h 3 v -1 z m 4,0 v 1 h 3 v -1 z m 4,0 v 1 h 3 v -1 z m 4,0 v 1 h 3 v -1 z m 4,0 v 1 h 3 v -1 z m 4,0 v 1 h 3 v -1 z m 4,0 v 1 h 3 v -1 z m 4,0 v 1 h 3 v -1 z m 4,0 v 1 h 3 v -1 z m 4,0 v 1 h 3 v -1 z m 4,0 v 1 h 3 v -1 z m 4,0 v 1 h 3 v -1 z m 4,0 v 1 h 3 v -1 z m 4,0 v 1 h 3 v -1 z m 4,0 v 1 h 3 v -1 z m 4,0 v 1 h 3 v -1 z m 4,0 v 1 h 3 v -1 z m 4,0 v 1 h 3 v -1 z m 4,0 v 1 h 3 v -1 z m 4,0 v 1 h 3 v -1 z m 4,0 v 1 h 3 v -1 z m 4,0 v 1 h 3 v -1 z m 4,0 v 1 h 3 v -1 z m 4,0 v 1 h 3 v -1 z m 4,0 v 1 h 3 v -1 z m 4,0 v 1 h 3 v -1 z m 4,0 v 1 h 3 v -1 z m 4,0 v 1 h 3 v -1 z m 4,0 v 1 h 3 v -1 z m 4,0 v 1 h 3 v -1 z m 4,0 v 1 h 3 v -1 z m 4,0 v 1 h 3 v -1 z m 4,0 v 1 h 3 v -1 z m 4,0 v 1 h 3 v -1 z m 4,0 v 1 h 3 v -1 z m 4,0 v 1 h 3 v -1 z m 4,0 v 1 h 3 v -1 z m 4,0 v 1 h 3 v -1 z m -521.000007,1.42968 -2.11914,2.1211 0.707031,0.70703 2.11914,-2.1211 z m -2.830078,2.83008 -2.119141,2.1211 0.707032,0.70703 2.11914,-2.1211 z M 278.07422,107.01 v 1 h 1 v -1 z m 2,0 v 1 h 1 v -1 z m 2,0 v 1 h 1 v -1 z m 2,0 v 1 h 1 v -1 z m 2,0 v 1 h 1 v -1 z m 2,0 v 1 h 1 v -1 z m 2,0 v 1 h 1 v -1 z m 2,0 v 1 h 1 v -1 z m 2,0 v 1 h 1 v -1 z m 2,0 v 1 h 1 v -1 z m 2,0 v 1 h 1 v -1 z m 2,0 v 1 h 1 v -1 z m 2,0 v 1 h 1 v -1 z m 2,0 v 1 h 1 v -1 z m 2,0 v 1 h 1 v -1 z m 2,0 v 1 h 1 v -1 z m 2,0 v 1 h 1 v -1 z m 2,0 v 1 h 1 v -1 z m 2,0 v 1 h 1 v -1 z m 2,0 v 1 h 1 v -1 z m 2,0 v 1 h 1 v -1 z m 2,0 v 1 h 1 v -1 z m 2,0 v 1 h 1 v -1 z m 2,0 v 1 h 1 v -1 z m 2,0 v 1 h 1 v -1 z m 2,0 v 1 h 1 v -1 z m 2,0 v 1 h 1 v -1 z m 2,0 v 1 h 1 v -1 z m 2,0 v 1 h 1 v -1 z m 2,0 v 1 h 1 v -1 z m 2,0 v 1 h 1 v -1 z m 2,0 v 1 h 1 v -1 z m 2,0 v 1 h 1 v -1 z m 2,0 v 1 h 1 v -1 z m 2,0 v 1 h 1 v -1 z m 2,0 v 1 h 1 v -1 z m 2,0 v 1 h 1 v -1 z m 2,0 v 1 h 1 v -1 z m 2,0 v 1 h 1 v -1 z m 2,0 v 1 h 1 v -1 z m 2,0 v 1 h 1 v -1 z m 2,0 v 1 h 1 v -1 z m 2,0 v 1 h 1 v -1 z m 2,0 v 1 h 1 v -1 z m 2,0 v 1 h 1 v -1 z m 2,0 v 1 h 1 v -1 z m 2,0 v 1 h 1 v -1 z m 2,0 v 1 h 1 v -1 z m 2,0 v 1 h 1 v -1 z m 2,0 v 1 h 1 v -1 z m 2,0 v 1 h 1 v -1 z m 2,0 v 1 h 1 v -1 z m 2,0 v 1 h 1 v -1 z m 2,0 v 1 h 1 v -1 z m 2,0 v 1 h 1 v -1 z m 2,0 v 1 h 1 v -1 z m 2,0 v 1 h 1 v -1 z m 2,0 v 1 h 1 v -1 z m 2,0 v 1 h 1 v -1 z m 2,0 v 1 h 1 v -1 z m 2,0 v 1 h 1 v -1 z m 2,0 v 1 h 1 v -1 z m 2,0 v 1 h 1 v -1 z m 2,0 v 1 h 1 v -1 z m 2,0 v 1 h 1 v -1 z m 2,0 v 1 h 1 v -1 z m 2,0 v 1 h 1 v -1 z m 2,0 v 1 h 1 v -1 z m 2,0 v 1 h 1 v -1 z m 2,0 v 1 h 1 v -1 z m 2,0 v 1 h 1 v -1 z m 2,0 v 1 h 1 v -1 z m 2,0 v 1 h 1 v -1 z m 2,0 v 1 h 1 v -1 z m 2,0 v 1 h 1 v -1 z m 2,0 v 1 h 1 v -1 z m 2,0 v 1 h 1 v -1 z m 2,0 v 1 h 1 v -1 z m 2,0 v 1 h 1 v -1 z m 2,0 v 1 h 1 v -1 z m 2,0 v 1 h 1 v -1 z m 2,0 v 1 h 1 v -1 z m 2,0 v 1 h 1 v -1 z m 2,0 v 1 h 1 v -1 z m 2,0 v 1 h 1 v -1 z m 2,0 v 1 h 1 v -1 z m 2,0 v 1 h 1 v -1 z m 2,0 v 1 h 1 v -1 z m 2,0 v 1 h 1 v -1 z m 2,0 v 1 h 1 v -1 z m 2,0 v 1 h 1 v -1 z m 2,0 v 1 h 1 v -1 z m 2,0 v 1 h 1 v -1 z m 2,0 v 1 h 1 v -1 z m 2,0 v 1 h 1 v -1 z m 2,0 v 1 h 1 v -1 z m 2,0 v 1 h 1 v -1 z m 2,0 v 1 h 1 v -1 z m 2,0 v 1 h 1 v -1 z m 2,0 v 1 h 1 v -1 z m 2,0 v 1 h 1 v -1 z m 2,0 v 1 h 1 v -1 z m 2,0 v 1 h 1 v -1 z m 2,0 v 1 h 1 v -1 z m 2,0 v 1 h 1 v -1 z m 2,0 v 1 h 1 v -1 z m 2,0 v 1 h 1 v -1 z m 2,0 v 1 h 0.77149 v -1 z m -452.169923,0.0898 -2.119141,2.12109 0.707032,0.70703 2.11914,-2.12109 z m 237.169923,0.43555 -0.86718,0.5 0.5,0.86718 0.86718,-0.5 z m -1.73047,1 -0.86328,0.5 0.5,0.86718 0.86328,-0.5 z m -1.72851,1 -0.86524,0.5 0.5,0.86718 0.86524,-0.5 z m -236.541021,0.39453 -2.119141,2.12109 0.707031,0.70703 2.119141,-2.12109 z m 234.810551,0.60547 -0.86523,0.5 0.5,0.86718 0.86523,-0.5 z m -1.73047,1 -0.86523,0.5 0.5,0.86718 0.86523,-0.5 z m -1.73047,1 -0.86523,0.5 0.5,0.86718 0.86523,-0.5 z m -234.179689,0.22461 -2.119141,2.12109 0.708984,0.70703 2.119141,-2.12109 z m 232.451179,0.77539 -0.86719,0.5 0.5,0.86718 0.86719,-0.5 z m -1.73047,1 -0.86524,0.5 0.5,0.86718 0.86524,-0.5 z m -1.73047,1 -0.86524,0.5 0.5,0.86718 0.86524,-0.5 z m -231.820317,0.0547 -2.119141,2.1211 0.707031,0.70703 2.119141,-2.12109 z m 230.089847,0.94532 -0.86328,0.5 0.5,0.86718 0.86328,-0.5 z m 41.57031,0.47461 -1.48047,0.85156 0.5,0.86523 1.48047,-0.85156 z m -43.29883,0.52539 -0.86718,0.5 0.5,0.86718 0.86718,-0.5 z m 40.95899,0.82422 -2.59961,1.5 0.5,0.86523 2.59961,-1.5 z m -272.150396,0.0605 -2.11914,2.11914 0.707031,0.70703 2.119141,-2.11914 z m 229.460946,0.11524 -0.86719,0.5 0.5,0.86718 0.86719,-0.5 z m -1.73047,1 -0.86524,0.5 0.5,0.86718 0.86524,-0.5 z m 40.96093,0.82422 -2.60156,1.5 0.5,0.86523 2.60156,-1.5 z m -42.6914,0.17578 -0.86524,0.5 0.5,0.86718 0.86524,-0.5 z m -1.72852,1 -0.86523,0.5 0.5,0.86718 0.86523,-0.5 z m 40.95899,0.82422 -2.59961,1.5 0.5,0.86523 2.59961,-1.5 z m -42.68946,0.17578 -0.86718,0.5 0.5,0.86718 0.86718,-0.5 z m -1.73046,1 -0.86719,0.5 0.5,0.86718 0.86719,-0.5 z m 40.96093,0.82422 -2.60156,1.5 0.5,0.86523 2.60156,-1.5 z m -42.6914,0.17578 -0.86524,0.5 0.5,0.86718 0.86524,-0.5 z m -1.72852,1 -0.86523,0.5 0.5,0.86718 0.86523,-0.5 z m 40.95899,0.82422 -2.59961,1.5 0.5,0.86523 2.59961,-1.5 z m -42.68946,0.17578 -0.86523,0.5 0.5,0.86718 0.86523,-0.5 z m -1.73047,1 -0.86718,0.5 0.5,0.86718 0.86718,-0.5 z m 40.96094,0.82422 -2.60156,1.5 0.5,0.86523 2.60156,-1.5 z m -59.46094,0.01 v 1 h 1 v -1 z m 2,0 v 1 h 1 v -1 z m 2,0 v 1 h 1 v -1 z m 2,0 v 1 h 1 v -1 z m 2,0 v 1 h 1 v -1 z m 2,0 v 1 h 1 v -1 z m 2,0 v 1 h 1 v -1 z m 2,0 v 1 h 1 v -1 z m 2,0 v 1 h 1 v -1 z m 40,1.99024 -2.59961,1.5 0.5,0.86523 2.59961,-1.5 z m -3.45898,2 -2.60156,1.5 0.5,0.86523 2.60156,-1.5 z m -3.46094,2 -2.59961,1.5 0.5,0.86523 2.59961,-1.5 z m -3.46094,2 -2.59961,1.5 0.5,0.86523 2.59961,-1.5 z m -3.45898,2 -2.59961,1.5 0.5,0.86523 2.59961,-1.5 z m -3.46094,2 -2.59961,1.5 0.5,0.86523 2.59961,-1.5 z"
       style="display:inline;fill:#1defff;fill-opacity:1"
       clip-path="url(#clipPath36)" />
  </g>
</svg>
